# xmcd CD database file
#
# Track frame offsets:
#	150
#	22676
#	41423
#	65670
#	87423
#	100834
#	116697
#	141349
#	161710
#	180138
#	197036
#
# Disc length: 3009 seconds
#
# Revision: 0
# Processed by: cddbd v1.5.2PL0 Copyright (c) Steve Scherf et al.
# Submitted via: CDex 1.77
#
DISCID=8b0bbf0b
DTITLE=DIXIELAND Seniors - 2009 Mister Jelly Lord
DYEAR=2009
DGENRE=Jazz
TTITLE0=Mister Jelly Lord (Ferdinand "Jelly Roll" Morton -1923)
TTITLE1=Alexander's Ragtime Band (Irving Berlin - 1911)
TTITLE2=Savoy Blues (Edward "Kid" Ory, Sid Robin - 1927)
TTITLE3=Cakewalking babies from home (Clarence Williams -1924)
TTITLE4=Always (Irving Berlin -1925)
TTITLE5=I lost my heart in Dixieland (Irving Berlin - 1925)
TTITLE6=West End Blues (Joe "King" Oliver, Clarence Williams - 1928)
TTITLE7=Barataria (Bill Easwood, Leo Addle - 1923)
TTITLE8=Smoke House Blues (Charlie Luke - 1926)
TTITLE9=At the Jazz Band Hall (Nick La Rocca, Larry Shields, Johny Mercer - 1918)
TTITLE10=Just a close walk with Thee (Traditionnel)
EXTD=YEAR: 2009
EXTT0=
EXTT1=
EXTT2=
EXTT3=
EXTT4=
EXTT5=
EXTT6=
EXTT7=
EXTT8=
EXTT9=
EXTT10=
PLAYORDER=
